# xmcd
#
# Track frame offsets: 
#        150
#        8105
#        15317
#        25047
#        35745
#        49680
#        59470
#        75525
#        88180
#        101365
#        117705
#        128785
#        137008
#        151660
#        165370
#
# Disc length: 2320 seconds
#
# Revision: 1
# Processed by: cddbd v1.5.2PL0 Copyright (c) Steve Scherf et al.
# Submitted via: ExactAudioCopy v0.95b4
#
DISCID=af090e0f
DTITLE=Tony Bennett - The Platinum Anthology
DYEAR=2005
DGENRE=Ballads
TTITLE0=I Guess I'll Have to Change My Plans
TTITLE1=With Plenty of Money and You
TTITLE2=Chicago
TTITLE3=Anything Goes
TTITLE4=I've Grown Accustomed to Her Face
TTITLE5=Jeepers Creepers
TTITLE6=Poor Little Rich Girl
TTITLE7=Are You Havin' Any Fun
TTITLE8=Life Is a Song
TTITLE9=Growing Pains
TTITLE10=Life Is Beautiful
TTITLE11=Experiment
TTITLE12=As Time Goes By
TTITLE13=There'll Be Some Changes Made
TTITLE14=I Left My Heart in San Francisco [live]
EXTD=CD: Cleopatra/Master Classics 8053 (2005-08-23), UPC 881162805326
EXTD=
EXTT0=(Howard Dietz/Arthur Schwartz)
EXTT1=(Al Dubin/Harry Warren)
EXTT2=(Fred Fisher)
EXTT3=(Cole Porter)
EXTT4=(Alan Jay Lerner/Frederick Loewe)
EXTT5=(Johnny Mercer/Harry Warren)
EXTT6=(Noël Coward)
EXTT7=(Sammy Fain/Jack Yellen)
EXTT8=(Fred E. Ahlert/Joe Young)
EXTT9=(Dorothy Fields/Arthur Schwartz)
EXTT10=(Fred Astaire/Tommy Wolf)
EXTT11=(Cole Porter)
EXTT12=(Herman Hupfield)
EXTT13=(Billy Higgins/W. Benton Overstreet)
EXTT14=(George Cory/Douglass Cross)
PLAYORDER=
